<svg id="Layer_2" height="512" viewBox="0 0 512 512" width="512" xmlns="http://www.w3.org/2000/svg" data-name="Layer 2"><path d="m512 152h-424v-48l-80 96 80 96v-48h424" fill="#3dfaff"/><path d="m88 296v-48h424v-48h-504z" fill="#1beaea"/><path d="m176 432h160v80h-160z" fill="#1990ba"/><path d="m136 360v-124a60 60 0 0 1 60-60h124a60 60 0 0 1 60 60v124" fill="#23a3db"/><path d="m240 208v128l16 24 16-24v-128z" fill="#3dfaff"/><path d="m240 176h32v32h-32z" fill="#23d8d8"/><path d="m208 40v67.773c0 16.041 7.709 24.292 21.078 29.056a16.177 16.177 0 0 1 10.922 15.171v24h32v-24a16.177 16.177 0 0 1 10.922-15.171c13.369-4.764 21.078-13.014 21.078-29.056v-67.773z" fill="#fdcaa7"/><g fill="#894619"><path d="m240 8h64v32h-72l-8 32-16 16v-48a32 32 0 0 1 32-32z"/><path d="m240 64h16v16h-16z"/><path d="m272 64h16v16h-16z"/></g><path d="m248 144h26.19a16.552 16.552 0 0 1 8.732-7.171c13.369-4.764 21.078-13.014 21.078-29.056v-99.773h-32v106.444a25.33 25.33 0 0 1 -11.279 21.076z" fill="#e28f56" opacity=".3"/><path d="m168 232h16v128h-16z" fill="#1c81a5"/><path d="m328 232h16v128h-16z" fill="#61ccf2"/><path d="m0 360h424v-48l80 96-80 96v-56h-424" fill="#f7d74f"/><path d="m248 448h16v64h-16z" fill="#1c81a5"/><path d="m104 448h96v56h-96z" fill="#894619"/><path d="m172 448h28v56h-28z" fill="#663412"/><path d="m424 360h-424v48h504l-80-96z" fill="#fafbfc" opacity=".5"/></svg>