<svg id="Layer_2" height="512" viewBox="0 0 512 512" width="512" xmlns="http://www.w3.org/2000/svg" data-name="Layer 2"><path d="m296 268.53-64 62.79-42.69-5.66-42.69-5.66 100.13-98.25 24.52 23.29z" fill="#f7d74f"/><path d="m120 441.21-64 62.79h-48v-48l64-62.79z" fill="#f7d74f"/><path d="m19.532 294.307a208.243 208.243 0 0 1 72.122-198.768l113.206 150.94z" fill="#129696"/><path d="m214 481.72a208.4 208.4 0 0 1 -163.073-119.544l-7.983-17.387 189.056-48.789v187.985z" fill="#3dfaff"/><path d="m280 311.942 163.4 66.572a207.852 207.852 0 0 1 -163.4 116.255z" fill="#23a3db"/><path d="m72 393.21 24.12 24.12-88.12 86.67v-48z" fill="#fafbfc" opacity=".3"/><path d="m246.75 221.75 24.52 23.29-81.96 80.62-42.69-5.66z" fill="#fafbfc" opacity=".3"/><path d="m394.576 80a224.056 224.056 0 0 0 -267.808-6.974l137.232 182.974 200.616 81.732a224.37 224.37 0 0 0 -24.766-209.732z" fill="#48beff"/><path d="m467.873 183.125a223.253 223.253 0 0 0 -28.023-55.125l-13.15-13.939-45.28 70.659z" fill="#30a3d6"/><path d="m504 120-24-32-98.58 96.72a32 32 0 0 1 -46.09-1.32l-.65-.72-1.96-2.15a32 32 0 0 1 1.27-44.37l98.01-96.16-24-32 88 16z" fill="#f7d74f"/><path d="m496 24-161.32 158.68-1.96-2.15a32 32 0 0 1 1.27-44.37l98.01-96.16-24-32z" fill="#fafbfc" opacity=".3"/></svg>