<svg id="Layer_2" height="512" viewBox="0 0 512 512" width="512" xmlns="http://www.w3.org/2000/svg" data-name="Layer 2"><path d="m312 104 48-56-40-40h184v168l-40-32-48 48z" fill="#f9e48a"/><path d="m392 136h-128l-120 120 8 64-32 32 45.76 44.372 34.24-28.372 64 16 128-128z" fill="#169bd6"/><path d="m392 136h-128l-120 120 8 64-32 32 45.76 44.372 34.24-28.372 64 16 128-128z" fill="#169bd6"/><circle cx="270.699" cy="251.5" fill="#3dfaff" r="48" transform="matrix(.722 -.692 .692 .722 -98.757 257.194)"/><path d="m248 152h-56l-64 64 48 8z" fill="#0c8cc4"/><path d="m376 272v56l-72 72-8-48z" fill="#0c8cc4"/><path d="m48 504 117.76-107.628-44.279-46.21-113.481 105.838v48z" fill="#f4b651"/><path d="m265.809 136a205.781 205.781 0 0 1 77.776 47.268 209.453 209.453 0 0 1 48.415 72.732v-120z" fill="#56cbf4"/><path d="m8 248 208-192-24-32h88l-16 88-24-32-232 224z" fill="#f7d74f"/><path d="m232 504 208-192-24-32h88l-16 88-24-32-176 168z" fill="#f7d74f"/><path d="m265.809 136h-1.809l-120 120 8 64-32 32 22.397 21.717 249.603-237.717z" fill="#fafbfc" opacity=".3"/></svg>