<svg id="Layer_2" height="512" viewBox="0 0 512 512" width="512" xmlns="http://www.w3.org/2000/svg" data-name="Layer 2"><path d="m240 464-40-32v-48l56-48 72 24v104z" fill="#e2894d"/><path d="m248 240h32v200h-32z" fill="#894619"/><path d="m8 408 184-200 32 24-216 232z" fill="#f7d74f"/><path d="m240 464h120v40h-120z" fill="#23a3db"/><path d="m365.217 168a104.023 104.023 0 1 1 1.56-40z" fill="#23a3db"/><path d="m331.9 168a72.008 72.008 0 1 1 2.313-40z" fill="#fffefd" opacity=".3"/><g opacity=".3"><path d="m287.41 75.9-49.75 49.76-11.32-11.32 42.2-42.19a71.024 71.024 0 0 1 18.87 3.75z" fill="#fffefd"/></g><g opacity=".3"><path d="m312.51 90.8-26.85 26.86-11.32-11.32 25.06-25.05a72.386 72.386 0 0 1 13.11 9.51z" fill="#fffefd"/></g><g opacity=".3"><path d="m320 480h16v24h-16z" fill="#fffefd"/></g><path d="m504 80-24-16-72 104h-128l-38.16 44.52a72.045 72.045 0 0 1 -33.09-22.36l55.25-62.16h128l56-80-24-24 72-16z" fill="#f7d74f"/><path d="m200 400 56-24 40 16v-40l-40-8-56 24z" fill="#fdcaa7"/><path d="m200 336v32l56-24 40 8v-32l-40-8z" fill="#efad81"/><path d="m256 280-56 16v40l56-24 40 8v-32z" fill="#fdcaa7"/><path d="m344 464 16-40v-64l-64-56v48l24 24s-32 8-32 56v32z" fill="#efad81"/></svg>